<svg width="782" height="653" viewBox="0 0 782 653" fill="none" xmlns="http://www.w3.org/2000/svg">
<path fill-rule="evenodd" clip-rule="evenodd" d="M447.205 117.656C438.772 119.232 425.715 111.149 419.752 106.758C410.277 99.8304 401.03 90.2036 404.289 77.241C407.341 65.247 421.486 74.4946 426.77 79.9803C430.124 83.4932 432.531 87.5349 434.976 91.6392L434.976 91.6395L434.976 91.6397L434.976 91.6399L434.976 91.64L434.976 91.6402L434.976 91.6403L434.977 91.6405L434.977 91.6406L434.977 91.6407L434.977 91.6408C436.075 93.4841 437.18 95.3401 438.382 97.1665C443.74 105.392 449.062 110.254 457.154 114.709C457.348 114.814 457.513 114.954 457.65 115.116C460.947 115.796 464.236 116.568 467.513 117.421C467.759 117.44 468.001 117.476 468.24 117.53C468.383 117.558 468.514 117.624 468.628 117.715C477.728 120.137 486.737 123.184 495.592 126.653C496.179 126.883 496.766 127.115 497.353 127.349C485.918 118.533 475.548 105.83 468.888 93.6484C462.549 82.0231 457.862 60.9289 474.771 58.6037C487.346 56.8779 493.495 76.5291 497.049 87.887C497.373 88.9218 497.675 89.8878 497.959 90.7625C498.799 93.3612 499.614 96.1456 500.455 99.0212C504.784 113.823 509.821 131.043 522.747 137.816C523.365 138.139 523.694 138.766 523.763 139.414C549.17 152.594 573.112 169.903 593.117 191.858C600.58 200.05 607.482 208.862 613.806 218.158C613.222 216.391 612.611 214.634 611.934 212.905C609.979 207.856 607.908 202.862 605.84 197.872L605.84 197.871C604.698 195.119 603.558 192.368 602.438 189.61C597.011 176.237 592.022 162.571 589.898 148.25C588.253 137.106 587.605 107.809 603.484 110.559C603.535 110.521 603.587 110.484 603.639 110.447C604.659 109.713 605.767 110.354 606.276 111.319C606.437 111.378 606.6 111.439 606.763 111.503C613.305 114.046 617.487 123.14 619.405 129.811C622.888 141.908 623.838 154.367 623.626 166.684C623.538 172.206 623.276 177.715 623.015 183.225C622.639 191.154 622.262 199.087 622.402 207.069C622.568 217.566 623.973 227.514 625.898 237.745C639.368 261.833 649.336 288.223 655.552 314.899C658.669 328.287 660.862 341.821 662.038 355.345C662.155 354.98 662.271 354.616 662.387 354.254L662.392 354.24C662.559 353.716 662.725 353.197 662.888 352.683C665.368 344.906 668.172 337.341 671.138 329.829C672.093 327.384 673.008 324.909 673.924 322.431L673.924 322.431L673.924 322.43L673.925 322.429L673.925 322.429L673.925 322.428L673.925 322.427L673.926 322.427L673.926 322.426L673.926 322.425L673.927 322.424L673.927 322.423C676.611 315.161 679.302 307.879 683.043 301.275C683.259 300.895 683.493 300.478 683.744 300.031C688.634 291.317 700.088 270.912 711.107 277.978C716.581 281.495 718.344 292.025 717.699 297.919C716.64 307.545 711.445 315.89 705.788 322.776C700.976 328.652 695.462 334.03 689.926 339.431C679.531 349.569 669.058 359.785 662.999 373.515C663.433 397.304 660.576 420.846 653.921 443.291C648.162 462.817 640.193 481.337 630.29 498.507C628.513 501.591 626.723 504.587 624.888 507.483C625.257 507.26 625.62 507.034 625.977 506.803C632.363 502.684 638.984 498.305 644.36 492.7L645.055 491.98C650.382 486.467 655.861 480.795 662.31 476.804C666.964 473.923 674.404 469.947 679.747 474.658C684.409 478.74 686.053 486.187 684.59 492.001C681.002 506.161 661.942 511.465 650.487 514.654L650.129 514.753C638.347 518.029 626.12 520.785 613.917 522.626C607.726 529.915 600.633 536.19 591.824 541.191C590.015 542.204 587.385 539.654 589.07 537.858C591.348 535.424 593.71 533.08 596.072 530.737C599.496 527.341 602.919 523.944 606.084 520.272C619.139 505.078 629.209 485.662 637.174 466.604C640.538 458.54 643.554 450.265 646.112 441.799C645.641 425.602 635.991 406.651 629.248 393.409L629.248 393.408C628.673 392.279 628.119 391.192 627.594 390.151C626.045 387.073 624.182 383.732 622.218 380.211L622.218 380.211C613.997 365.471 604.016 347.575 607.942 332.583C612.993 313.299 634.358 329.705 639.941 340.906C647.64 356.304 647.911 373.089 647.977 389.692C648.026 399.407 648.492 408.871 649.476 418.59C649.644 420.29 649.837 422.018 650.033 423.76C650.116 424.502 650.2 425.246 650.282 425.992C651.695 419.708 652.834 413.329 653.658 406.862C658.772 366.658 653.263 323.892 639.33 284.636C638.394 283.877 637.471 283.107 636.548 282.337C633.157 279.509 629.776 276.69 625.844 274.48C619.715 271.042 613.374 268.036 607.044 265.061C598.525 261.039 590.09 256.737 582.024 251.518C573.041 245.716 550.358 228.287 567.797 218.887C583.084 210.652 598.713 224.563 609.475 237.049C618.057 247.031 626.131 257.949 633.392 269.324C632.339 266.826 631.251 264.346 630.129 261.886C612.018 222.208 586.035 188.985 552.25 164.569C537.166 162.349 525.118 170.358 512.928 178.462C504.918 183.787 496.846 189.152 487.811 191.683C480.872 193.657 454.523 199.887 454.793 183.743C455.173 160.452 481.999 153.198 499.01 151.592C509.95 150.558 522.676 150.248 534.599 152.978C514.443 140.911 493.514 132.065 471.989 125.006C471.888 125.14 471.758 125.26 471.596 125.36C468.012 127.535 464.528 129.9 461.044 132.266C457.561 134.631 454.077 136.996 450.492 139.172C449.968 139.487 449.383 139.861 448.751 140.264C444.242 143.14 437.308 147.562 432.729 143.835C426.168 138.498 435.525 127.727 439.346 125.561C443.872 122.976 449.342 120.795 454.971 119.806C452.39 119.071 449.801 118.355 447.205 117.656ZM466.522 123.255C465.897 123.06 465.272 122.866 464.646 122.673C464.193 122.958 463.734 123.238 463.275 123.519C461.665 124.502 460.051 125.488 458.688 126.68C457.395 127.812 456.119 128.977 454.843 130.141L454.843 130.142C451.806 132.912 448.765 135.687 445.476 138.049C445.442 138.073 445.401 138.102 445.352 138.136C449.061 135.99 452.582 133.447 456.077 130.921L456.078 130.921L456.078 130.92L456.079 130.92L456.088 130.913C456.95 130.29 457.811 129.668 458.673 129.054C459.399 128.532 460.2 127.877 461.054 127.18C462.732 125.809 464.612 124.273 466.522 123.255ZM436.079 139.149C435.618 139.186 435.008 139.234 434.417 139.325C434.397 139.039 434.397 138.723 434.42 138.374C434.766 132.654 439.547 129.514 443.744 127.399C447.644 125.411 452.098 124.068 456.674 123.277C455.112 124.7 453.622 126.197 452.284 127.542C450.986 128.846 449.832 130.005 448.895 130.813L448.465 131.181C444.899 134.239 441.159 137.446 436.811 139.068C436.724 139.098 436.45 139.12 436.079 139.149ZM611.094 121.875C608.485 117.893 605.796 116.22 603.318 116.148C595.25 125.564 601.466 144.155 605.689 156.783L605.689 156.783L605.689 156.783C606.237 158.425 606.753 159.965 607.198 161.371C611.583 175.229 615.859 189.464 617.836 203.842C617.891 198.953 618.115 194.118 618.331 189.45L618.331 189.45L618.331 189.449L618.331 189.448C618.378 188.423 618.425 187.406 618.47 186.399C618.575 184.074 618.715 181.629 618.859 179.096C619.918 160.576 621.246 137.363 611.094 121.875ZM622.653 232.102C621.647 227.733 620.393 223.428 618.972 219.168C618.979 220.534 618.959 221.9 618.908 223.267C619.087 224.5 619.291 225.727 619.525 226.946C620.586 228.651 621.629 230.37 622.653 232.102ZM609.07 193.841C611.033 198.509 612.995 203.177 614.842 207.876C612.508 192.595 608.166 177.954 603.741 163.031C602.566 159.071 601.386 155.09 600.235 151.073C597.499 141.531 594.237 128.954 597.218 119.498C594.951 122.322 593.424 126.591 593.191 130.967C592.651 140.955 594.265 151.679 596.99 161.45C600.097 172.494 604.584 183.168 609.07 193.841ZM438.818 112.294C433.92 110.772 429.163 108.895 424.237 105.802C419.476 102.795 414.903 98.9695 411.451 94.2229C409.463 91.5337 406.948 84.4685 407.652 79.9892C413.16 91.9463 425.429 100.136 436.434 107.483C439.192 109.324 441.87 111.112 444.344 112.894C442.503 112.661 440.661 112.461 438.818 112.294ZM439.253 106.282C437.602 104.121 436.11 101.891 434.79 99.7931C433.945 98.4491 433.074 96.9663 432.165 95.4177C427.415 87.3267 421.611 77.439 412.825 76.1584C411.531 75.9675 410.516 76.12 409.737 76.5334C410.009 76.8972 410.28 77.2597 410.549 77.621C415.909 84.8021 420.886 91.4707 427.974 97.1951C431.718 100.229 435.484 103.256 439.253 106.282ZM504.508 130.312C492.521 121.019 481.715 107.007 473.835 94.15C469.779 87.527 465.058 78.2222 467.506 70.4561C468.072 68.6543 469.008 67.169 470.173 66.0502C470.333 66.2941 470.556 66.5131 470.85 66.6878C478.805 71.2854 483.523 83.3768 487.446 93.4313L487.446 93.4319L487.447 93.4326L487.447 93.4334C488.532 96.2144 489.557 98.8395 490.572 101.107C495.254 111.556 501.216 121.713 508.321 130.625C508.703 131.269 509.098 131.899 509.505 132.51C507.843 131.761 506.178 131.028 504.508 130.312ZM488.31 87.681C484.819 79.2172 480.605 68.9992 473.516 64.0327C476.438 63.0922 479.8 63.8173 482.427 66.6192C486.665 71.1213 489.042 78.1016 491.101 84.1456C491.341 84.851 491.577 85.5436 491.811 86.218C493.32 90.5327 494.716 94.8858 496.112 99.2389C497.509 103.592 498.905 107.945 500.414 112.26L500.533 112.599L500.533 112.599L500.536 112.606C500.805 113.372 501.093 114.189 501.4 115.046C497.058 107.354 493.24 99.3234 489.769 91.1828C489.294 90.065 488.809 88.891 488.31 87.681ZM545.084 160.438C545.417 160.387 545.747 160.329 546.075 160.263C547.256 161.057 548.428 161.862 549.591 162.677C548.102 161.881 546.603 161.132 545.084 160.438ZM532.469 156.265C528.478 157.047 524.613 158.374 521.365 159.649C515.328 162.024 509.703 165.417 504.105 168.793L504.105 168.793L504.105 168.793L504.104 168.793L504.104 168.794C501.395 170.427 498.693 172.058 495.953 173.567C489.252 177.29 482.268 180.5 475.043 183.003C471.28 184.287 467.332 185.24 463.292 185.291C461.954 185.306 460.806 184.765 459.679 184.234C459.359 184.083 459.04 183.933 458.72 183.797C458.163 177.871 465.279 168.871 467.749 166.68C476.206 159.161 488.548 156.815 499.339 155.501C509.132 154.313 519.267 154.444 529.184 155.726C530.296 155.87 531.39 156.051 532.469 156.265ZM462.67 188.508C464.056 188.663 465.313 188.669 466.013 188.635C473.9 188.244 481.641 184.55 488.644 181.209L489.267 180.912C495.085 178.138 500.672 174.867 506.26 171.596C508.057 170.544 509.854 169.492 511.66 168.456C516.882 165.452 522.398 162.887 528.31 161.587C530.078 161.197 531.903 161.028 533.747 160.949C524.579 163.95 515.889 170.028 507.807 175.68C504.796 177.786 501.869 179.833 499.033 181.64C490.382 187.138 473.244 192.859 462.67 188.508ZM629.733 271.886C632.648 276.088 635.69 280.145 639.039 283.819C638.001 280.923 636.917 278.047 635.789 275.192C635.055 274.674 634.306 274.173 633.547 273.69C634.334 274.822 635.083 275.987 635.787 277.185L635.776 277.153C636.157 277.742 635.451 278.198 635.028 277.696C633.353 275.656 631.583 273.724 629.733 271.886ZM628.626 270.805C626.752 269.782 624.912 268.844 623.205 267.975L623.205 267.974C622.57 267.651 621.954 267.337 621.362 267.032C617.41 264.977 613.407 263.083 609.407 261.19L609.407 261.19C604.039 258.65 598.675 256.112 593.439 253.188C586.073 249.072 559.782 234.188 567.633 224.948C572.157 233.974 582.191 239.853 590.357 244.637L590.363 244.64C591.076 245.058 591.776 245.468 592.456 245.871C593.611 246.556 594.774 247.243 595.942 247.932C607.193 254.573 618.911 261.489 628.626 270.805ZM570.294 222.791C570.906 222.428 571.595 222.079 572.363 221.744C587.458 215.155 604.519 236.837 613.402 248.132C616.89 252.578 620.106 257.41 623.314 262.282C616.971 256.594 609.751 251.911 602.744 247.817C600.923 246.754 599.025 245.7 597.093 244.626C587.134 239.092 576.255 233.046 570.294 222.791ZM662.958 371.65C663.653 369.485 664.182 367.235 664.688 364.976C664.097 365.539 663.49 366.088 662.868 366.624L662.879 366.656C662.849 366.679 662.818 366.697 662.786 366.711C662.859 368.358 662.916 370.004 662.958 371.65ZM666.449 357.643C666.255 358.322 666.074 359.008 665.901 359.698C669.099 354.803 672.555 350.091 676.011 345.381L676.011 345.38C681.691 337.637 687.37 329.895 691.901 321.342C697.997 309.843 700.89 297.167 703.831 284.285L703.85 284.201C703.975 283.653 704.101 283.104 704.226 282.555C696.506 286.417 686.396 305.226 684.561 309.088C681.516 315.524 679.002 322.387 676.504 329.205L676.504 329.206L676.503 329.208L676.503 329.209L676.503 329.209L676.502 329.209L676.502 329.209L676.502 329.21L676.502 329.21L676.502 329.21L676.502 329.21L676.502 329.21L676.502 329.211L676.502 329.211C675.51 331.918 674.521 334.617 673.502 337.281L673.448 337.425L673.448 337.426L673.447 337.426C670.934 344.06 668.405 350.737 666.449 357.643ZM693.906 325.111C701.371 311.942 704.907 297.285 707.29 281.893C708.377 282.035 709.366 282.659 710.215 283.884C721.531 300.193 702.062 320.378 692.313 330.486L692.303 330.497C691.886 330.929 691.487 331.343 691.109 331.738C689.567 333.345 687.997 334.921 686.421 336.491C689.08 332.816 691.66 329.079 693.906 325.111ZM645.705 429.753C645.904 433.259 646.105 436.777 646.575 440.248C647.3 437.787 647.987 435.31 648.631 432.818C648.271 431.009 647.838 429.204 647.357 427.424C647.595 428.476 647.843 429.519 648.101 430.554C648.444 431.873 646.815 432.465 646.3 431.169C646.095 430.665 645.895 430.16 645.699 429.654L645.705 429.753ZM639.034 404.644C635.565 396.826 631.655 389.24 627.744 381.652C623.767 373.934 619.788 366.215 616.273 358.25C613.44 351.799 609.132 339.996 612.485 332.985C629.858 349.468 633.403 370.977 637.021 392.929C637.664 396.829 638.309 400.742 639.034 404.644ZM614.747 330.007C614.954 329.83 615.171 329.66 615.399 329.498C623.119 324.026 632.994 337.281 636.381 343.522C643.62 356.839 643.475 373.119 643.343 388.062L643.343 388.062L643.343 388.063L643.343 388.063L643.343 388.064L643.343 388.064L643.343 388.065L643.343 388.065L643.343 388.066L643.343 388.066L643.343 388.067L643.343 388.067L643.343 388.068L643.343 388.068L643.343 388.069L643.343 388.069L643.343 388.07L643.343 388.07C643.32 390.662 643.297 393.213 643.314 395.701C643.334 399.898 643.546 404.055 643.861 408.205C643.533 406.078 643.214 403.938 642.893 401.792L642.89 401.773L642.89 401.769L642.889 401.765L642.889 401.762L642.888 401.758L642.887 401.754L642.887 401.751L642.886 401.747C638.923 375.214 634.816 347.722 614.747 330.007ZM650.108 510.165C649.797 510.329 649.48 510.495 649.159 510.664L648.7 510.905C659.59 507.978 672.597 503.886 678.568 494.344C679.93 492.166 680.676 488.085 680.21 484.522C675.28 496.231 660.847 504.509 651.473 509.447C651.277 509.549 651.079 509.654 650.878 509.759L650.413 510.004L650.108 510.165ZM650.863 505.238C661.404 499.338 673.384 491.896 678.132 479.393C677.056 478.233 675.546 477.604 673.516 477.863C666.761 478.717 660.844 484.278 655.963 488.867L655.757 489.06C654.071 490.641 652.425 492.248 650.785 493.85C646.393 498.14 642.041 502.391 637.051 506.003C635.863 506.861 634.63 507.783 633.358 508.733C630.534 510.842 627.522 513.091 624.409 515.098C633.622 513.19 642.368 509.965 650.863 505.238Z" fill="#38628A"/>
<path d="M288.409 214.801C298.422 204.124 305.909 191.497 311.314 176.39C313.308 148.7 309.01 122.206 299.352 96.4218C290.359 72.4978 277.998 50.3017 262.757 29.7891C259.523 25.403 255.757 21.2828 251.814 17.5613C247.03 12.998 242.599 14.1499 240.65 20.6625C238.966 26.3334 238.257 32.2701 237.15 38.0739C240.65 58.0105 244.283 77.5928 247.384 97.2636C249.333 109.536 251.106 121.896 251.637 134.257C252.435 152.554 256.466 170.01 264.884 185.959C271.485 198.453 274.365 211.168 273.922 224.326C274.719 224.016 275.561 223.662 276.359 223.352C280.745 221.624 284.599 218.921 288.453 214.801H288.409Z" fill="#0A2239"/>
<path d="M247.651 587.44C250.22 584.605 252.613 581.902 254.562 579.111C267.853 560.282 276.803 539.326 286.284 517.175L286.859 515.845C287.613 514.029 287.524 513.01 286.328 511.327C281.986 505.124 277.644 498.966 273.303 492.808C272.505 501.403 270.423 508.89 267.499 516.288C261.518 531.573 256.556 547.301 250.796 562.674C247.296 571.978 242.866 580.972 239.41 590.276C238.214 593.465 237.904 596.611 238.214 599.579C239.632 597.143 241.315 594.662 243.53 592.048C244.86 590.497 246.233 588.947 247.606 587.396L247.651 587.44Z" fill="#0A2239"/>
<path d="M335.899 582.964C330.228 583.362 325.753 585.489 322.74 589.609C327.569 588.457 332.399 587.881 337.183 587.881C341.968 587.881 347.24 588.502 352.202 589.742C354.462 590.318 356.677 590.938 358.936 591.603C361.417 592.312 363.854 593.065 366.379 593.597C372.227 594.881 378.784 596.255 385.43 596.875C382.24 593.065 379.139 589.122 376.171 585.046C365.848 583.451 355.348 583.229 344.848 582.875C341.88 582.786 338.867 582.698 335.899 582.919V582.964Z" fill="#0A2239"/>
<path d="M393.188 636.573C413.125 636.573 433.106 636.661 453.043 636.528C458.005 636.528 462.967 635.908 467.884 635.111C475.283 633.914 480.422 629.794 483.479 622.661C486.226 616.237 489.637 610.168 492.916 603.965C494.289 601.351 495.796 598.649 497.656 596.345C504.302 588.149 508.245 588.193 515.023 596.301C516.928 598.604 518.745 601.041 521.004 602.946C526.144 607.332 529.466 607.554 535.27 602.813C538.15 600.465 540.099 600.155 543.067 601.927C544.751 602.946 546.612 603.788 548.517 604.231C556.314 606.047 560.922 602.326 561.232 594.085C561.232 593.111 561.143 592.092 561.099 591.117C560.922 588.237 560.789 585.402 560.612 582.522C563.447 582.611 566.371 583.054 569.162 582.699C574.523 582.035 580.15 581.813 585.112 579.864C591.181 577.516 592.023 571.269 587.814 566.396C587.504 565.997 587.238 565.51 586.795 565.288C581.833 562.497 576.871 559.706 571.909 556.915C574.302 552.041 577.27 547.389 578.865 542.294C580.238 537.908 577.004 534.01 572.131 532.06C566.593 529.845 561.365 531.662 556.048 533.035C550.511 534.497 548.428 533.611 547.897 528.339C547.232 521.959 547.321 515.447 547.675 509.023C547.985 503.573 549.314 498.212 549.89 492.763C553.878 456.434 543.909 423.694 523.264 394.099C515.599 383.112 507.093 372.479 497.833 362.82C477.232 341.289 451.891 328.042 422.473 322.992C409.226 320.688 395.891 318.96 382.6 316.878C368.555 314.707 355.707 309.656 344.41 300.884C340.29 297.694 337.499 294.106 336.746 288.701C336.037 283.295 334.663 277.935 333.024 272.751C330.764 265.663 331.739 259.726 335.283 252.903C342.594 238.77 353.714 228.093 364.612 217.283C384.549 197.479 402.226 176.125 415.916 151.492C430.138 125.84 440.46 99.2139 439.22 69.1317C438.732 57.4356 436.074 46.4483 430.049 36.3913C425.84 29.3471 423.226 28.3281 415.207 29.7458C402.935 31.9167 392.878 38.2521 384.638 47.3343C370.461 62.9292 359.163 80.4291 350.391 99.6569C339.227 124.245 330.543 149.676 322.302 175.283C316.72 192.65 308.303 208.201 295.765 221.581C291.246 226.41 286.151 230.22 279.993 232.612C267.455 237.485 255.05 242.802 242.379 247.232C232.676 250.599 227.271 257.201 226.784 266.947C226.252 278.023 221.778 286.928 215.176 295.435C207.733 305.049 206.36 316.568 207.866 328.175C208.486 332.783 211.056 337.656 214.069 341.378C222.088 351.346 231.967 358.7 245.524 359.365C249.024 359.542 249.689 361.979 248.183 364.504C242.29 374.384 236.841 384.396 234.315 395.782C233.341 400.257 231.746 404.377 235.467 408.409C238.214 411.377 236.974 414.833 236.353 418.333C235.423 423.694 234.803 429.143 234.404 434.592C234.094 438.845 235.246 442.611 240.031 443.896C242.955 444.694 244.107 446.732 243.929 449.434C243.398 458.516 246.986 464.674 255.67 468.086C257.664 468.883 258.55 472.118 260.41 473.668C261.784 474.776 264.353 475.928 265.594 475.396C270.29 473.314 273.17 475.13 275.695 478.719C282.031 487.668 288.322 496.662 294.613 505.611C297.714 510.041 298.334 514.693 296.119 519.744C286.505 542.206 276.98 564.712 262.803 584.826C259.391 589.699 255.094 593.953 251.239 598.516C237.683 614.509 241.847 628.421 261.828 634.712C272.239 637.99 281.765 635.288 290.404 630.104C293.771 628.066 295.898 623.237 297.448 619.25C300.948 610.478 303.651 601.351 306.885 592.446C315.613 568.256 331.606 549.427 351.321 533.478C355.353 530.2 356.505 530.598 358.853 535.693C369.707 558.864 383.131 580.307 400.676 599.047C401.695 600.111 402.625 601.307 403.378 602.592C404.663 604.807 403.777 606.579 401.385 606.845C388.802 608.263 376.53 606.003 364.302 603.345C359.429 602.282 354.733 600.598 349.859 599.402C338.872 596.655 328.195 597.541 317.606 601.617C308.303 605.206 305.113 612.56 304.404 621.465C303.961 626.826 306.176 631.744 311.492 633.427C317.075 635.199 323.056 636.484 328.904 636.573C350.347 636.927 371.79 636.706 393.233 636.706C393.233 636.661 393.233 636.617 393.233 636.573H393.188Z" fill="#0A2239"/>
<path fill-rule="evenodd" clip-rule="evenodd" d="M200.487 596.121C208.975 597.368 218.698 609.264 222.909 615.357C229.616 624.99 235.229 637.102 227.93 648.299C221.143 658.648 210.775 645.303 207.563 638.396C205.533 633.983 204.572 629.378 203.595 624.702L203.595 624.702L203.595 624.702L203.595 624.701L203.595 624.701L203.595 624.701L203.595 624.701L203.595 624.701L203.595 624.701L203.595 624.701L203.595 624.7C203.157 622.6 202.715 620.486 202.172 618.368C199.782 608.847 196.33 602.518 190.127 595.673C189.979 595.512 189.869 595.328 189.793 595.132C186.888 593.411 184.022 591.607 181.193 589.729C180.975 589.633 180.764 589.524 180.563 589.399C180.44 589.327 180.339 589.226 180.262 589.107C172.442 583.855 164.912 578.043 157.665 571.88C157.184 571.471 156.704 571.06 156.225 570.648C164.171 582.703 169.846 598.09 172.181 611.776C174.394 624.831 171.965 646.303 155.219 643.002C142.766 640.543 143.344 619.961 143.677 608.064C143.708 606.981 143.736 605.969 143.753 605.049C143.803 602.319 143.939 599.421 144.079 596.428C144.799 581.023 145.637 563.101 135.617 552.492C135.138 551.985 135.031 551.284 135.177 550.649C115.438 529.922 98.4282 505.767 86.6532 478.498C82.2594 468.324 78.5989 457.744 75.6424 446.896C75.6198 448.758 75.6264 450.619 75.7039 452.477C75.9103 457.887 76.2438 463.283 76.577 468.674L76.577 468.675C76.7608 471.649 76.9445 474.621 77.1067 477.594C77.8888 492.005 78.1608 506.55 75.5109 520.783C73.4414 531.859 64.5209 559.784 50.3946 552L50.338 552.017L50.2717 552.038L50.2231 552.052C49.024 552.413 48.1868 551.455 48.0146 550.381C47.8803 550.273 47.7455 550.161 47.6104 550.046C42.2515 545.514 41.2552 535.554 41.6112 528.622C42.2521 516.05 45.4068 503.959 49.6137 492.381C51.4929 487.188 53.5319 482.064 55.5717 476.938C58.5066 469.562 61.443 462.183 63.9067 454.59C67.1649 444.609 69.0722 434.743 70.5796 424.441C65.6774 397.283 64.8359 369.087 67.6346 341.841C69.0417 328.166 71.3703 314.655 74.6571 301.484L74.3531 301.892L73.9722 302.402L73.9633 302.414C73.6346 302.855 73.3086 303.291 72.9871 303.725C68.1122 310.273 63.0002 316.514 57.7524 322.652C56.0537 324.654 54.3834 326.697 52.7116 328.742L52.7111 328.742L52.7107 328.743L52.7103 328.743L52.7098 328.744L52.7094 328.745L52.709 328.745L52.7085 328.746L52.7081 328.746L52.7076 328.747L52.7069 328.748L52.7059 328.749C47.8062 334.743 42.8923 340.754 37.2066 345.781C36.8791 346.071 36.5227 346.389 36.1399 346.73C28.6806 353.379 11.213 368.949 3.09113 358.684C-0.941016 353.577 0.816643 343.046 3.3439 337.682C7.47629 328.924 15.103 322.723 22.6922 318.051C29.1543 314.06 36.1177 310.768 43.1095 307.462C56.2364 301.256 69.4631 295.002 79.6585 283.99C86.9856 261.353 97.3456 240.02 110.939 220.96C122.736 204.37 136.296 189.449 151.245 176.434C153.931 174.094 156.599 171.842 159.278 169.699C158.855 169.79 158.436 169.886 158.021 169.989C150.643 171.807 142.958 173.794 136.051 177.346C135.754 177.497 135.457 177.649 135.16 177.8C128.329 181.281 121.303 184.862 113.906 186.538C108.568 187.749 100.239 189.089 96.7192 182.896C93.6392 177.519 94.5064 169.943 97.7806 164.921C105.779 152.698 125.529 153.882 137.398 154.593L137.769 154.615C149.976 155.35 162.437 156.721 174.577 158.95C182.801 154.072 191.548 150.447 201.504 148.582C203.543 148.213 205.201 151.48 203.023 152.63C200.084 154.188 197.094 155.632 194.105 157.077L194.103 157.077L194.102 157.078L194.101 157.078L194.1 157.079L194.099 157.079L194.098 157.08L194.097 157.081L194.096 157.081L194.095 157.082L194.094 157.082L194.093 157.083L194.092 157.083L194.091 157.084L194.09 157.084L194.089 157.085L194.088 157.086L194.087 157.086L194.086 157.087L194.084 157.087C189.743 159.185 185.402 161.283 181.214 163.726C163.927 173.847 148.09 188.932 134.358 204.363C128.553 210.896 123.009 217.74 117.835 224.916C113.017 240.384 115.977 261.437 118.046 276.148C118.222 277.403 118.392 278.612 118.55 279.767C119.014 283.182 119.689 286.947 120.401 290.915C123.38 307.528 126.997 327.697 118.409 340.597C107.359 357.189 92.4929 334.725 90.8566 322.318C88.5854 305.253 93.788 289.292 99.1261 273.571C102.24 264.368 104.878 255.267 107.109 245.757C107.503 244.095 107.881 242.399 108.263 240.688L108.264 240.686L108.266 240.674L108.268 240.667L108.269 240.662C108.429 239.945 108.59 239.226 108.752 238.505C105.372 243.987 102.221 249.648 99.3383 255.494C81.4257 291.847 72.7245 334.078 73.1307 375.73C73.7687 376.751 74.3915 377.78 75.0138 378.808C77.3006 382.585 79.5805 386.351 82.5801 389.72C87.2576 394.965 92.2758 399.87 97.294 404.741C104.041 411.316 110.618 418.128 116.548 425.686C123.155 434.095 138.936 457.954 119.388 461.171C102.254 463.986 91.9991 445.747 85.8837 430.44C81.0146 418.208 76.9314 405.258 73.7646 392.138C73.948 394.846 74.1702 397.547 74.4313 400.24C78.6515 443.652 92.4158 483.522 116.424 517.6C129.964 524.603 143.961 520.949 158.122 517.251C167.429 514.822 176.808 512.373 186.174 512.919C193.378 513.31 220.32 515.989 214.814 531.167C206.879 553.068 179.152 551.202 162.544 547.187C151.864 544.606 139.732 540.761 129.347 534.304C144.478 552.266 161.388 567.436 179.443 581.11C179.583 581.014 179.747 580.942 179.936 580.899C184.033 580.008 188.097 578.904 192.16 577.801C196.224 576.697 200.288 575.594 204.385 574.703C204.983 574.574 205.658 574.412 206.387 574.236C211.586 572.983 219.581 571.057 222.699 576.071C227.168 583.252 214.815 590.393 210.497 591.199C205.372 592.172 199.484 592.454 193.833 591.555C196.038 593.093 198.256 594.614 200.487 596.121ZM184.039 584.541C184.568 584.931 185.098 585.319 185.629 585.706C186.151 585.584 186.679 585.467 187.206 585.351L187.206 585.351C189.048 584.945 190.895 584.538 192.572 583.854C194.163 583.204 195.748 582.518 197.334 581.831C201.106 580.199 204.885 578.564 208.763 577.4C208.815 577.385 208.882 577.366 208.963 577.343C204.739 578.165 200.565 579.431 196.42 580.688C195.397 580.998 194.377 581.307 193.358 581.61C192.502 581.867 191.531 582.225 190.496 582.607C188.461 583.358 186.179 584.201 184.039 584.541ZM218.007 579.417C218.454 579.532 219.047 579.684 219.634 579.791C219.561 580.066 219.458 580.363 219.323 580.685C217.136 585.981 211.594 587.395 206.936 588.03C202.604 588.641 197.959 588.463 193.377 587.724C195.314 586.887 197.208 585.957 198.908 585.122C200.559 584.311 202.028 583.59 203.176 583.131L203.703 582.922C208.069 581.191 212.649 579.375 217.289 579.255C217.381 579.256 217.647 579.324 218.007 579.417ZM46.8888 538.83C48.059 543.438 50.0548 545.894 52.3703 546.771C63.0732 540.498 63.242 520.888 63.3566 507.569C63.3715 505.838 63.3855 504.214 63.4215 502.739C63.7824 488.212 64.3687 473.364 67.1754 459.127C65.5325 463.733 63.7478 468.233 62.0251 472.577L62.0244 472.579L62.0193 472.592C61.6431 473.541 61.2699 474.482 60.9017 475.415C60.0467 477.579 59.1197 479.844 58.1594 482.191L58.1585 482.193L58.1581 482.194C51.1327 499.362 42.3268 520.882 46.8888 538.83ZM71.8126 430.833C71.3422 435.292 71.1282 439.77 71.0854 444.261C71.5238 442.965 71.9883 441.678 72.4808 440.4C72.7129 439.178 72.9181 437.953 73.0933 436.726C72.6445 434.769 72.2176 432.804 71.8126 430.833ZM72.2106 471.436C71.8735 466.383 71.5364 461.33 71.3186 456.287C68.556 471.493 67.8998 486.746 67.231 502.294C67.0534 506.421 66.875 510.569 66.656 514.743C66.1394 524.662 65.1318 537.626 59.2278 545.597C62.2933 543.665 65.13 540.122 66.7756 536.055C70.5354 526.786 72.4973 516.12 73.0985 505.995C73.7523 494.54 72.9814 482.987 72.2106 471.436ZM206.694 603.931C210.825 606.961 214.709 610.281 218.357 614.803C221.881 619.195 224.961 624.3 226.682 629.911C227.686 633.099 227.767 640.595 225.646 644.603C224.326 631.504 215.389 619.769 207.372 609.242C205.367 606.609 203.419 604.051 201.662 601.566C203.327 602.385 205.005 603.174 206.694 603.931ZM204.309 609.449C205.169 612.035 205.856 614.634 206.423 617.052C206.786 618.598 207.126 620.283 207.482 622.044C209.342 631.239 211.615 642.478 219.506 646.546C220.669 647.148 221.679 647.334 222.551 647.195C222.412 646.762 222.274 646.33 222.136 645.899C219.403 637.365 216.866 629.441 212.026 621.722C209.47 617.631 206.891 613.54 204.309 609.449ZM150.422 565.519C158.736 578.205 164.397 594.971 167.666 609.693C169.348 617.275 170.785 627.609 165.944 634.157C164.824 635.676 163.456 636.775 161.993 637.454C161.921 637.169 161.781 636.887 161.558 636.625C155.532 629.69 155.003 616.721 154.563 605.937L154.563 605.937L154.563 605.936L154.563 605.935C154.442 602.952 154.327 600.137 154.104 597.662C153.075 586.25 150.738 574.698 146.914 563.952C146.763 563.23 146.597 562.516 146.413 561.815C147.74 563.064 149.077 564.299 150.422 565.519ZM151.876 611.094C152.424 620.237 153.086 631.275 158.18 638.276C155.108 638.218 152.161 636.439 150.586 632.932C148.043 627.296 148.066 619.922 148.085 613.537C148.088 612.792 148.09 612.06 148.088 611.346C148.065 606.776 148.16 602.205 148.256 597.635C148.351 593.064 148.447 588.493 148.424 583.923L148.421 583.563L148.421 583.563C148.415 582.743 148.408 581.868 148.397 580.948C150.002 589.638 151.001 598.477 151.635 607.308C151.721 608.52 151.797 609.787 151.876 611.094L151.876 611.094ZM121.847 523.83C121.518 523.771 121.188 523.719 120.858 523.675C120.004 522.545 119.161 521.408 118.33 520.264C119.474 521.495 120.643 522.686 121.847 523.83ZM132.415 531.88C136.448 532.44 140.538 532.443 144.028 532.294C150.509 532.011 156.931 530.633 163.323 529.261L163.323 529.261L163.324 529.261L163.324 529.26L163.324 529.26C166.417 528.597 169.503 527.934 172.585 527.398C180.133 526.057 187.781 525.293 195.427 525.277C199.403 525.286 203.446 525.669 207.283 526.935C208.553 527.356 209.463 528.241 210.356 529.11C210.609 529.356 210.861 529.601 211.119 529.834C209.722 535.62 200.061 541.819 197.013 543.088C186.57 547.447 174.136 545.651 163.504 543.383C153.858 541.322 144.316 537.901 135.355 533.463C134.348 532.964 133.369 532.435 132.415 531.88ZM208.904 524.089C207.649 523.495 206.468 523.083 205.797 522.888C198.212 520.692 189.691 521.667 181.982 522.549L181.296 522.627C174.892 523.358 168.545 524.633 162.198 525.909L162.198 525.909L162.198 525.909L162.198 525.909L162.197 525.909C160.155 526.319 158.114 526.73 156.07 527.122C150.154 528.264 144.103 528.895 138.09 528.202C136.296 527.996 134.519 527.564 132.754 527.04C142.395 527.181 152.584 524.262 162.06 521.547C165.593 520.536 169.026 519.552 172.295 518.766C182.26 516.382 200.316 516.544 208.904 524.089ZM78.0536 390.891C76.6656 385.975 75.1097 381.155 73.1404 376.596C73.1798 379.672 73.2688 382.745 73.4075 385.811C73.9338 386.542 74.4814 387.261 75.0431 387.967C74.6652 386.637 74.3355 385.289 74.0587 383.923L74.0586 383.957C73.8903 383.276 74.7064 383.074 74.9428 383.687C75.861 386.156 76.9052 388.555 78.0536 390.891ZM78.7619 392.299C80.1979 393.871 81.6299 395.354 82.958 396.728L82.9598 396.73L82.9619 396.732L82.9743 396.745C83.4639 397.252 83.9393 397.744 84.3955 398.22C87.4633 401.448 90.6306 404.539 93.7965 407.63L93.7967 407.63L93.797 407.63L93.7972 407.63L93.7974 407.63L93.7977 407.631L93.7979 407.631L93.7981 407.631L93.7983 407.631L93.7986 407.632L93.7988 407.632L93.799 407.632L93.7993 407.632L93.7995 407.633L93.7997 407.633L93.8003 407.633C98.0496 411.781 102.296 415.926 106.297 420.394C111.923 426.682 131.941 449.307 121.516 455.491C120.175 445.483 112.598 436.66 106.431 429.478C105.891 428.849 105.361 428.233 104.848 427.629C103.987 426.614 103.119 425.597 102.247 424.575L102.228 424.553L102.226 424.55L102.222 424.545C93.7456 414.61 84.9179 404.263 78.7619 392.299ZM118.299 456.666C117.601 456.81 116.835 456.917 115.999 456.983C99.5821 458.304 90.5012 432.252 85.7751 418.682C83.9218 413.339 82.451 407.72 81.0012 402.065C85.1503 409.51 90.4561 416.289 95.7525 422.442C97.1284 424.039 98.5801 425.654 100.058 427.298C107.676 435.771 115.999 445.028 118.299 456.666ZM79.0905 285.767C77.7311 287.585 76.501 289.537 75.2889 291.507C76.0292 291.168 76.779 290.846 77.5397 290.543L77.5398 290.509C77.5768 290.497 77.6133 290.49 77.6489 290.487C78.115 288.908 78.5955 287.334 79.0905 285.767ZM71.2336 297.876C71.6407 297.293 72.0378 296.699 72.4282 296.099C67.8088 299.69 63.0047 303.024 58.2011 306.357C50.3113 311.831 42.4228 317.305 35.3565 323.919C25.8519 332.81 18.9928 343.855 12.0217 355.08L11.9809 355.146L11.8805 355.308C11.6144 355.736 11.3481 356.165 11.0815 356.593C19.6369 355.458 35.3208 340.956 38.3124 337.9C43.2862 332.803 47.8958 327.132 52.4761 321.496C54.2952 319.258 56.1097 317.025 57.9405 314.837L58.0391 314.718L58.0394 314.718L58.0397 314.717C62.5737 309.262 67.1376 303.77 71.2336 297.876ZM34.6866 319.703C23.3429 329.729 15.2313 342.44 7.97104 356.221C6.99093 355.733 6.25961 354.822 5.8561 353.389C0.460169 334.286 25.4355 321.531 37.9422 315.143C38.4821 314.868 38.9987 314.604 39.4886 314.352C41.4599 313.339 43.4471 312.363 45.4382 311.396C41.7381 314 38.0926 316.688 34.6866 319.703ZM114.306 236.427C115.256 233.05 116.21 229.661 116.895 226.229C115.409 228.32 113.954 230.439 112.534 232.586C112.286 234.413 112.109 236.261 111.986 238.099C112.102 237.026 112.207 235.958 112.3 234.895C112.405 233.536 114.138 233.506 114.203 234.899C114.233 235.441 114.258 235.983 114.279 236.524L114.306 236.427ZM112.447 262.343C113.184 270.863 114.414 279.308 115.643 287.754L115.644 287.755C116.895 296.347 118.146 304.94 118.879 313.615C119.46 320.638 119.695 333.201 114.242 338.74C103.176 317.504 106.82 296.012 110.539 274.078L110.539 274.077L110.539 274.077L110.54 274.076L110.54 274.076L110.54 274.075L110.54 274.075L110.54 274.074L110.54 274.074C111.2 270.178 111.863 266.268 112.447 262.343ZM111.133 340.82C110.881 340.92 110.621 341.009 110.353 341.088C101.274 343.751 96.2467 328.005 95.0736 321.002C92.5602 306.055 97.9924 290.707 102.978 276.62L102.978 276.619L102.978 276.619L102.979 276.618L102.979 276.618L102.979 276.617L102.979 276.617L102.979 276.616L102.979 276.616L102.98 276.616L102.98 276.615L102.98 276.615L102.98 276.614L102.98 276.614L102.98 276.613L102.981 276.613L102.981 276.612L102.981 276.612C103.846 274.169 104.697 271.764 105.491 269.405C106.838 265.427 107.989 261.425 109.043 257.396C108.657 259.533 108.26 261.679 107.861 263.831C102.979 290.209 97.9209 317.541 111.133 340.82ZM136.31 158.962C136.822 158.883 137.347 158.802 137.883 158.719C126.631 157.945 112.992 157.58 104.238 164.664C102.24 166.281 100.207 169.9 99.4893 173.423C107.96 163.952 124.301 160.819 134.771 159.199C135.265 159.124 135.774 159.045 136.296 158.964L136.31 158.962ZM133.98 163.377C122.093 165.528 108.345 168.668 99.7879 178.947C100.429 180.392 101.651 181.477 103.654 181.892C110.32 183.282 117.723 179.948 123.832 177.196L124.089 177.08C126.198 176.134 128.277 175.149 130.349 174.168C135.897 171.54 141.396 168.936 147.289 167.143C148.691 166.718 150.158 166.248 151.67 165.763L151.67 165.763L151.671 165.763L151.672 165.763C155.025 164.688 158.601 163.542 162.194 162.657C152.864 161.466 143.547 161.672 133.98 163.377Z" fill="#38628A"/>
</svg>
