<svg xmlns="http://www.w3.org/2000/svg" xmlns:xlink="http://www.w3.org/1999/xlink" width="500" zoomAndPan="magnify" viewBox="0 0 375 374.999991" height="500" preserveAspectRatio="xMidYMid meet" version="1.0"><defs><clipPath id="7749427a99"><path d="M 3 14 L 294 14 L 294 362.21875 L 3 362.21875 Z M 3 14 " clip-rule="nonzero"/></clipPath><clipPath id="83c9dbc476"><path d="M 306 175.441406 L 362 175.441406 L 362 231 L 306 231 Z M 306 175.441406 " clip-rule="nonzero"/></clipPath><clipPath id="d8e8550c5e"><path d="M 184.019531 236 L 321 236 L 321 298.441406 L 184.019531 298.441406 Z M 184.019531 236 " clip-rule="nonzero"/></clipPath><clipPath id="951237dec6"><path d="M 293 216 L 375 216 L 375 298.441406 L 293 298.441406 Z M 293 216 " clip-rule="nonzero"/></clipPath></defs><g clip-path="url(#7749427a99)"><path fill="#333652" d="M 291.097656 107.003906 C 287.523438 97.1875 275.023438 96.300781 275.023438 96.300781 C 206.285156 84.699219 173.726562 27.597656 162.121094 20.453125 C 150.515625 13.316406 148.503906 14.875 148.503906 14.875 C 148.503906 14.875 143.371094 12.648438 133.996094 20.453125 C 123.53125 29.175781 88.445312 84.695312 19.699219 96.300781 C 19.699219 96.300781 7.203125 97.1875 3.628906 107.003906 C 0.0585938 116.820312 8.089844 308.660156 152.71875 362.199219 C 308.953125 293.488281 294.667969 116.820312 291.097656 107.003906 Z M 291.097656 107.003906 " fill-opacity="1" fill-rule="nonzero"/></g><path fill="#90adc6" d="M 267.417969 120.476562 C 264.433594 112.292969 254.003906 111.542969 254.003906 111.542969 C 196.644531 101.867188 169.472656 54.214844 159.792969 48.257812 C 150.109375 42.304688 148.429688 43.601562 148.429688 43.601562 C 148.429688 43.601562 144.148438 41.742188 136.324219 48.257812 C 127.589844 55.535156 98.3125 101.867188 40.953125 111.542969 C 40.953125 111.542969 30.523438 112.292969 27.539062 120.476562 C 24.5625 128.671875 31.265625 288.75 151.949219 333.414062 C 282.3125 276.089844 270.394531 128.671875 267.417969 120.476562 Z M 267.417969 120.476562 " fill-opacity="1" fill-rule="nonzero"/><path fill="#fad02c" d="M 254.003906 111.542969 C 196.644531 101.867188 169.472656 54.214844 159.792969 48.257812 C 159.792969 48.257812 171.023438 104.328125 247.355469 121.730469 C 247.355469 121.730469 265.1875 261.121094 140.277344 328.574219 C 144.046875 330.304688 147.929688 331.933594 151.949219 333.417969 C 282.3125 276.09375 270.398438 128.675781 267.417969 120.480469 C 264.433594 112.292969 254.003906 111.542969 254.003906 111.542969 Z M 254.003906 111.542969 " fill-opacity="1" fill-rule="nonzero"/><g clip-path="url(#83c9dbc476)"><path fill="#1d213b" d="M 354.738281 230.109375 L 313.777344 230.109375 C 313.332031 230.109375 312.886719 230.066406 312.445312 229.976562 C 312.007812 229.890625 311.582031 229.761719 311.167969 229.589844 C 310.753906 229.417969 310.359375 229.207031 309.984375 228.957031 C 309.613281 228.707031 309.269531 228.425781 308.953125 228.105469 C 308.632812 227.789062 308.351562 227.445312 308.101562 227.070312 C 307.855469 226.699219 307.644531 226.304688 307.472656 225.890625 C 307.300781 225.476562 307.171875 225.046875 307.082031 224.609375 C 306.996094 224.167969 306.953125 223.722656 306.953125 223.277344 L 306.953125 202.777344 C 306.953125 201.878906 306.996094 200.988281 307.082031 200.097656 C 307.171875 199.207031 307.300781 198.320312 307.476562 197.441406 C 307.652344 196.566406 307.867188 195.699219 308.128906 194.839844 C 308.386719 193.984375 308.6875 193.140625 309.03125 192.316406 C 309.371094 191.488281 309.753906 190.679688 310.175781 189.890625 C 310.597656 189.101562 311.058594 188.335938 311.554688 187.589844 C 312.050781 186.84375 312.582031 186.128906 313.148438 185.433594 C 313.71875 184.742188 314.316406 184.082031 314.949219 183.449219 C 315.582031 182.816406 316.242188 182.214844 316.933594 181.648438 C 317.625 181.078125 318.34375 180.546875 319.085938 180.046875 C 319.832031 179.550781 320.597656 179.089844 321.386719 178.667969 C 322.175781 178.246094 322.980469 177.867188 323.808594 177.523438 C 324.632812 177.179688 325.476562 176.878906 326.332031 176.617188 C 327.1875 176.359375 328.054688 176.140625 328.929688 175.96875 C 329.808594 175.792969 330.691406 175.660156 331.582031 175.574219 C 332.472656 175.484375 333.363281 175.441406 334.257812 175.441406 C 335.152344 175.441406 336.042969 175.484375 336.933594 175.574219 C 337.824219 175.660156 338.707031 175.792969 339.585938 175.96875 C 340.460938 176.140625 341.328125 176.359375 342.183594 176.617188 C 343.039062 176.878906 343.882812 177.179688 344.707031 177.523438 C 345.535156 177.867188 346.339844 178.246094 347.128906 178.667969 C 347.917969 179.089844 348.683594 179.550781 349.429688 180.046875 C 350.171875 180.546875 350.890625 181.078125 351.582031 181.648438 C 352.273438 182.214844 352.933594 182.816406 353.566406 183.449219 C 354.199219 184.082031 354.796875 184.742188 355.367188 185.433594 C 355.933594 186.128906 356.464844 186.84375 356.960938 187.589844 C 357.457031 188.335938 357.917969 189.101562 358.339844 189.890625 C 358.761719 190.679688 359.144531 191.488281 359.484375 192.316406 C 359.828125 193.140625 360.128906 193.984375 360.386719 194.839844 C 360.648438 195.699219 360.863281 196.566406 361.039062 197.441406 C 361.214844 198.320312 361.34375 199.207031 361.433594 200.097656 C 361.519531 200.988281 361.5625 201.878906 361.5625 202.777344 L 361.5625 223.277344 C 361.5625 223.722656 361.519531 224.167969 361.433594 224.609375 C 361.34375 225.046875 361.214844 225.476562 361.042969 225.890625 C 360.871094 226.304688 360.664062 226.699219 360.414062 227.070312 C 360.164062 227.445312 359.882812 227.789062 359.5625 228.105469 C 359.246094 228.425781 358.902344 228.707031 358.53125 228.957031 C 358.15625 229.207031 357.761719 229.417969 357.347656 229.589844 C 356.933594 229.761719 356.507812 229.890625 356.070312 229.976562 C 355.628906 230.066406 355.183594 230.109375 354.738281 230.109375 Z M 320.605469 216.441406 L 347.910156 216.441406 L 347.910156 202.777344 C 347.910156 201.878906 347.824219 200.988281 347.648438 200.109375 C 347.472656 199.230469 347.214844 198.375 346.871094 197.546875 C 346.527344 196.714844 346.109375 195.929688 345.609375 195.183594 C 345.113281 194.4375 344.546875 193.746094 343.910156 193.113281 C 343.277344 192.476562 342.589844 191.910156 341.84375 191.410156 C 341.097656 190.914062 340.3125 190.492188 339.484375 190.148438 C 338.65625 189.804688 337.800781 189.546875 336.921875 189.371094 C 336.042969 189.195312 335.15625 189.109375 334.257812 189.109375 C 333.363281 189.109375 332.472656 189.195312 331.59375 189.371094 C 330.714844 189.546875 329.863281 189.804688 329.03125 190.148438 C 328.203125 190.492188 327.417969 190.914062 326.671875 191.410156 C 325.925781 191.910156 325.238281 192.476562 324.605469 193.113281 C 323.96875 193.746094 323.402344 194.4375 322.90625 195.183594 C 322.40625 195.929688 321.988281 196.714844 321.644531 197.546875 C 321.300781 198.375 321.042969 199.230469 320.867188 200.109375 C 320.691406 200.988281 320.605469 201.878906 320.605469 202.777344 Z M 320.605469 216.441406 " fill-opacity="1" fill-rule="nonzero"/></g><g clip-path="url(#d8e8550c5e)"><path fill="#e9eaec" d="M 313.777344 284.777344 C 313.332031 284.773438 312.886719 284.730469 312.445312 284.644531 C 312.007812 284.554688 311.582031 284.425781 311.167969 284.253906 C 310.753906 284.082031 310.359375 283.871094 309.988281 283.621094 C 309.613281 283.371094 309.269531 283.089844 308.953125 282.773438 C 308.636719 282.453125 308.351562 282.109375 308.105469 281.738281 C 307.855469 281.363281 307.644531 280.96875 307.472656 280.554688 C 307.300781 280.140625 307.171875 279.714844 307.085938 279.273438 C 306.996094 278.835938 306.953125 278.390625 306.953125 277.941406 L 306.953125 243.777344 C 306.953125 243.328125 306.910156 242.882812 306.820312 242.441406 C 306.734375 242.003906 306.605469 241.574219 306.433594 241.160156 C 306.261719 240.746094 306.050781 240.351562 305.800781 239.980469 C 305.550781 239.605469 305.269531 239.261719 304.953125 238.945312 C 304.636719 238.625 304.289062 238.34375 303.917969 238.09375 C 303.546875 237.84375 303.152344 237.632812 302.738281 237.460938 C 302.324219 237.289062 301.898438 237.160156 301.457031 237.074219 C 301.019531 236.984375 300.574219 236.941406 300.125 236.941406 L 204.554688 236.941406 C 203.886719 236.941406 203.214844 236.976562 202.546875 237.042969 C 201.882812 237.109375 201.21875 237.207031 200.5625 237.339844 C 199.902344 237.472656 199.253906 237.632812 198.613281 237.828125 C 197.972656 238.023438 197.339844 238.25 196.722656 238.507812 C 196.101562 238.765625 195.496094 239.050781 194.90625 239.371094 C 194.316406 239.6875 193.742188 240.03125 193.183594 240.402344 C 192.625 240.777344 192.085938 241.175781 191.570312 241.601562 C 191.050781 242.027344 190.554688 242.476562 190.082031 242.953125 C 189.605469 243.425781 189.15625 243.925781 188.730469 244.441406 C 188.304688 244.960938 187.90625 245.5 187.535156 246.058594 C 187.160156 246.617188 186.816406 247.191406 186.5 247.78125 C 186.183594 248.375 185.898438 248.980469 185.640625 249.601562 C 185.382812 250.21875 185.15625 250.851562 184.964844 251.492188 C 184.769531 252.136719 184.605469 252.785156 184.472656 253.445312 C 184.34375 254.101562 184.242188 254.765625 184.175781 255.433594 C 184.109375 256.101562 184.078125 256.769531 184.074219 257.441406 L 184.074219 277.941406 C 184.078125 278.613281 184.109375 279.28125 184.175781 279.949219 C 184.242188 280.617188 184.34375 281.28125 184.472656 281.941406 C 184.605469 282.597656 184.769531 283.25 184.964844 283.890625 C 185.15625 284.53125 185.382812 285.164062 185.640625 285.785156 C 185.898438 286.402344 186.183594 287.007812 186.5 287.601562 C 186.816406 288.191406 187.160156 288.769531 187.535156 289.324219 C 187.90625 289.882812 188.304688 290.421875 188.730469 290.941406 C 189.15625 291.460938 189.605469 291.957031 190.082031 292.429688 C 190.554688 292.90625 191.050781 293.355469 191.570312 293.78125 C 192.085938 294.207031 192.625 294.605469 193.183594 294.980469 C 193.742188 295.351562 194.316406 295.699219 194.90625 296.015625 C 195.496094 296.332031 196.101562 296.617188 196.722656 296.875 C 197.339844 297.132812 197.972656 297.359375 198.613281 297.554688 C 199.253906 297.75 199.902344 297.914062 200.5625 298.042969 C 201.21875 298.175781 201.882812 298.273438 202.546875 298.339844 C 203.214844 298.40625 203.886719 298.441406 204.554688 298.441406 L 313.777344 298.441406 C 314.226562 298.441406 314.671875 298.398438 315.109375 298.3125 C 315.550781 298.222656 315.976562 298.09375 316.390625 297.921875 C 316.804688 297.75 317.199219 297.539062 317.570312 297.289062 C 317.945312 297.042969 318.289062 296.757812 318.605469 296.441406 C 318.921875 296.125 319.207031 295.777344 319.453125 295.40625 C 319.703125 295.03125 319.914062 294.636719 320.085938 294.222656 C 320.257812 293.808594 320.386719 293.382812 320.472656 292.941406 C 320.5625 292.5 320.605469 292.058594 320.605469 291.609375 C 320.605469 291.160156 320.5625 290.714844 320.472656 290.277344 C 320.386719 289.835938 320.257812 289.410156 320.085938 288.992188 C 319.914062 288.578125 319.703125 288.183594 319.453125 287.8125 C 319.207031 287.4375 318.921875 287.09375 318.605469 286.777344 C 318.289062 286.460938 317.945312 286.175781 317.570312 285.925781 C 317.199219 285.679688 316.804688 285.46875 316.390625 285.296875 C 315.976562 285.125 315.550781 284.996094 315.109375 284.90625 C 314.671875 284.820312 314.226562 284.777344 313.777344 284.777344 Z M 313.777344 284.777344 " fill-opacity="1" fill-rule="nonzero"/></g><path fill="#4a4d6a" d="M 224.035156 258.441406 C 223.714844 258.121094 223.34375 257.875 222.925781 257.703125 C 222.507812 257.53125 222.074219 257.441406 221.621094 257.441406 C 221.167969 257.441406 220.734375 257.53125 220.316406 257.703125 C 219.898438 257.875 219.527344 258.121094 219.207031 258.441406 L 214.796875 262.859375 L 210.382812 258.441406 C 210.058594 258.132812 209.691406 257.894531 209.277344 257.726562 C 208.859375 257.5625 208.429688 257.480469 207.980469 257.484375 C 207.535156 257.488281 207.101562 257.578125 206.691406 257.75 C 206.277344 257.921875 205.914062 258.167969 205.597656 258.484375 C 205.28125 258.800781 205.035156 259.167969 204.863281 259.578125 C 204.691406 259.992188 204.601562 260.421875 204.597656 260.871094 C 204.59375 261.320312 204.675781 261.75 204.839844 262.167969 C 205.007812 262.582031 205.246094 262.953125 205.554688 263.273438 L 209.96875 267.691406 L 205.554688 272.109375 C 205.246094 272.433594 205.007812 272.800781 204.839844 273.21875 C 204.675781 273.632812 204.59375 274.066406 204.597656 274.511719 C 204.601562 274.960938 204.691406 275.390625 204.863281 275.804688 C 205.035156 276.21875 205.28125 276.582031 205.597656 276.898438 C 205.914062 277.214844 206.277344 277.460938 206.691406 277.632812 C 207.101562 277.808594 207.535156 277.894531 207.980469 277.898438 C 208.429688 277.902344 208.859375 277.824219 209.277344 277.65625 C 209.691406 277.492188 210.058594 277.253906 210.382812 276.941406 L 214.796875 272.523438 L 219.207031 276.941406 C 219.53125 277.253906 219.898438 277.492188 220.316406 277.65625 C 220.730469 277.824219 221.160156 277.902344 221.609375 277.898438 C 222.058594 277.894531 222.488281 277.808594 222.898438 277.632812 C 223.3125 277.460938 223.675781 277.214844 223.992188 276.898438 C 224.308594 276.582031 224.554688 276.21875 224.726562 275.804688 C 224.902344 275.390625 224.988281 274.960938 224.992188 274.511719 C 224.996094 274.066406 224.914062 273.632812 224.75 273.21875 C 224.582031 272.800781 224.34375 272.433594 224.035156 272.109375 L 219.621094 267.691406 L 224.035156 263.273438 C 224.355469 262.953125 224.601562 262.585938 224.773438 262.167969 C 224.949219 261.746094 225.035156 261.3125 225.035156 260.859375 C 225.035156 260.40625 224.949219 259.96875 224.773438 259.550781 C 224.601562 259.132812 224.355469 258.761719 224.035156 258.441406 Z M 224.035156 258.441406 " fill-opacity="1" fill-rule="nonzero"/><path fill="#4a4d6a" d="M 251.339844 258.441406 C 251.019531 258.121094 250.652344 257.875 250.234375 257.703125 C 249.816406 257.53125 249.378906 257.441406 248.925781 257.441406 C 248.476562 257.441406 248.039062 257.53125 247.621094 257.703125 C 247.203125 257.875 246.835938 258.121094 246.515625 258.441406 L 242.101562 262.859375 L 237.6875 258.441406 C 237.367188 258.132812 236.996094 257.894531 236.582031 257.726562 C 236.164062 257.5625 235.734375 257.480469 235.285156 257.484375 C 234.839844 257.488281 234.410156 257.578125 233.996094 257.75 C 233.582031 257.921875 233.21875 258.167969 232.902344 258.484375 C 232.585938 258.800781 232.339844 259.167969 232.167969 259.578125 C 231.996094 259.992188 231.90625 260.421875 231.902344 260.871094 C 231.898438 261.320312 231.980469 261.75 232.144531 262.167969 C 232.3125 262.582031 232.550781 262.953125 232.859375 263.273438 L 237.273438 267.691406 L 232.859375 272.109375 C 232.550781 272.433594 232.3125 272.800781 232.144531 273.21875 C 231.980469 273.632812 231.898438 274.066406 231.902344 274.511719 C 231.90625 274.960938 231.996094 275.390625 232.167969 275.804688 C 232.339844 276.21875 232.585938 276.582031 232.902344 276.898438 C 233.21875 277.214844 233.582031 277.460938 233.996094 277.632812 C 234.410156 277.808594 234.839844 277.894531 235.285156 277.898438 C 235.734375 277.902344 236.164062 277.824219 236.582031 277.65625 C 236.996094 277.492188 237.367188 277.253906 237.6875 276.941406 L 242.101562 272.523438 L 246.515625 276.941406 C 246.835938 277.253906 247.203125 277.492188 247.621094 277.65625 C 248.035156 277.824219 248.46875 277.902344 248.914062 277.898438 C 249.363281 277.894531 249.792969 277.808594 250.207031 277.632812 C 250.617188 277.460938 250.984375 277.214844 251.300781 276.898438 C 251.617188 276.582031 251.859375 276.21875 252.03125 275.804688 C 252.207031 275.390625 252.292969 274.960938 252.296875 274.511719 C 252.300781 274.066406 252.222656 273.632812 252.054688 273.21875 C 251.890625 272.800781 251.652344 272.433594 251.339844 272.109375 L 246.925781 267.691406 L 251.339844 263.273438 C 251.660156 262.953125 251.90625 262.585938 252.082031 262.167969 C 252.253906 261.746094 252.339844 261.3125 252.339844 260.859375 C 252.339844 260.40625 252.253906 259.96875 252.082031 259.550781 C 251.90625 259.132812 251.660156 258.761719 251.339844 258.441406 Z M 251.339844 258.441406 " fill-opacity="1" fill-rule="nonzero"/><path fill="#4a4d6a" d="M 274.234375 267.691406 L 278.644531 263.273438 C 278.957031 262.953125 279.195312 262.582031 279.363281 262.167969 C 279.527344 261.75 279.609375 261.320312 279.605469 260.871094 C 279.601562 260.421875 279.511719 259.992188 279.339844 259.578125 C 279.164062 259.167969 278.921875 258.800781 278.605469 258.484375 C 278.289062 258.167969 277.921875 257.921875 277.511719 257.75 C 277.097656 257.578125 276.667969 257.488281 276.222656 257.484375 C 275.773438 257.480469 275.34375 257.5625 274.925781 257.726562 C 274.511719 257.894531 274.140625 258.132812 273.820312 258.441406 L 269.40625 262.859375 L 264.992188 258.441406 C 264.671875 258.132812 264.304688 257.894531 263.886719 257.726562 C 263.472656 257.5625 263.039062 257.480469 262.59375 257.484375 C 262.144531 257.488281 261.714844 257.578125 261.300781 257.75 C 260.890625 257.921875 260.523438 258.167969 260.207031 258.484375 C 259.890625 258.800781 259.648438 259.167969 259.472656 259.578125 C 259.300781 259.992188 259.214844 260.421875 259.210938 260.871094 C 259.207031 261.320312 259.285156 261.75 259.453125 262.167969 C 259.617188 262.582031 259.855469 262.953125 260.167969 263.273438 L 264.582031 267.691406 L 260.167969 272.109375 C 259.855469 272.433594 259.617188 272.800781 259.453125 273.21875 C 259.285156 273.632812 259.207031 274.066406 259.210938 274.511719 C 259.214844 274.960938 259.300781 275.390625 259.472656 275.804688 C 259.648438 276.21875 259.890625 276.582031 260.207031 276.898438 C 260.523438 277.214844 260.890625 277.460938 261.300781 277.632812 C 261.714844 277.808594 262.144531 277.894531 262.59375 277.898438 C 263.039062 277.902344 263.472656 277.824219 263.886719 277.65625 C 264.304688 277.492188 264.671875 277.253906 264.992188 276.941406 L 269.40625 272.523438 L 273.820312 276.941406 C 274.140625 277.253906 274.511719 277.492188 274.925781 277.65625 C 275.34375 277.824219 275.773438 277.902344 276.222656 277.898438 C 276.667969 277.894531 277.097656 277.808594 277.511719 277.632812 C 277.921875 277.460938 278.289062 277.214844 278.605469 276.898438 C 278.921875 276.582031 279.164062 276.21875 279.339844 275.804688 C 279.511719 275.390625 279.601562 274.960938 279.605469 274.511719 C 279.609375 274.066406 279.527344 273.632812 279.363281 273.21875 C 279.195312 272.800781 278.957031 272.433594 278.644531 272.109375 Z M 274.234375 267.691406 " fill-opacity="1" fill-rule="nonzero"/><g clip-path="url(#951237dec6)"><path fill="#4a4d6a" d="M 313.777344 216.441406 L 354.738281 216.441406 C 355.40625 216.441406 356.078125 216.476562 356.746094 216.539062 C 357.410156 216.605469 358.074219 216.703125 358.734375 216.835938 C 359.390625 216.96875 360.039062 217.128906 360.683594 217.324219 C 361.324219 217.519531 361.953125 217.746094 362.574219 218.003906 C 363.195312 218.257812 363.800781 218.546875 364.390625 218.863281 C 364.984375 219.179688 365.558594 219.523438 366.113281 219.898438 C 366.671875 220.269531 367.210938 220.667969 367.730469 221.09375 C 368.246094 221.519531 368.742188 221.972656 369.21875 222.445312 C 369.691406 222.921875 370.140625 223.417969 370.566406 223.9375 C 370.992188 224.457031 371.390625 224.996094 371.765625 225.554688 C 372.136719 226.109375 372.480469 226.6875 372.796875 227.277344 C 373.113281 227.871094 373.402344 228.476562 373.65625 229.097656 C 373.914062 229.71875 374.140625 230.347656 374.335938 230.992188 C 374.53125 231.632812 374.691406 232.285156 374.824219 232.941406 C 374.953125 233.601562 375.050781 234.265625 375.117188 234.933594 C 375.183594 235.601562 375.214844 236.269531 375.214844 236.941406 L 375.214844 277.941406 C 375.214844 278.613281 375.183594 279.285156 375.117188 279.953125 C 375.050781 280.621094 374.953125 281.28125 374.824219 281.941406 C 374.691406 282.601562 374.53125 283.25 374.335938 283.894531 C 374.140625 284.535156 373.914062 285.167969 373.65625 285.785156 C 373.402344 286.40625 373.113281 287.011719 372.796875 287.605469 C 372.480469 288.199219 372.136719 288.773438 371.765625 289.332031 C 371.390625 289.890625 370.992188 290.429688 370.566406 290.945312 C 370.140625 291.464844 369.691406 291.964844 369.21875 292.4375 C 368.742188 292.914062 368.246094 293.363281 367.730469 293.789062 C 367.210938 294.214844 366.671875 294.613281 366.113281 294.988281 C 365.558594 295.359375 364.984375 295.703125 364.390625 296.019531 C 363.800781 296.339844 363.195312 296.625 362.574219 296.882812 C 361.953125 297.136719 361.324219 297.363281 360.683594 297.558594 C 360.039062 297.753906 359.390625 297.917969 358.734375 298.046875 C 358.074219 298.179688 357.410156 298.277344 356.746094 298.34375 C 356.078125 298.410156 355.40625 298.441406 354.738281 298.441406 L 313.777344 298.441406 C 313.109375 298.441406 312.4375 298.410156 311.769531 298.34375 C 311.105469 298.277344 310.441406 298.179688 309.785156 298.046875 C 309.125 297.917969 308.476562 297.753906 307.832031 297.558594 C 307.191406 297.363281 306.5625 297.136719 305.941406 296.882812 C 305.320312 296.625 304.714844 296.339844 304.125 296.019531 C 303.53125 295.703125 302.957031 295.359375 302.402344 294.988281 C 301.84375 294.613281 301.304688 294.214844 300.785156 293.789062 C 300.269531 293.363281 299.773438 292.914062 299.296875 292.4375 C 298.824219 291.964844 298.375 291.464844 297.949219 290.945312 C 297.523438 290.429688 297.125 289.890625 296.75 289.332031 C 296.378906 288.773438 296.035156 288.199219 295.71875 287.605469 C 295.402344 287.011719 295.113281 286.40625 294.859375 285.785156 C 294.601562 285.167969 294.375 284.535156 294.179688 283.894531 C 293.988281 283.25 293.824219 282.601562 293.691406 281.941406 C 293.5625 281.28125 293.464844 280.621094 293.398438 279.953125 C 293.332031 279.285156 293.300781 278.613281 293.300781 277.941406 L 293.300781 236.941406 C 293.300781 236.269531 293.332031 235.601562 293.398438 234.933594 C 293.464844 234.265625 293.5625 233.601562 293.691406 232.941406 C 293.824219 232.285156 293.988281 231.632812 294.179688 230.992188 C 294.375 230.347656 294.601562 229.71875 294.859375 229.097656 C 295.113281 228.476562 295.402344 227.871094 295.71875 227.277344 C 296.035156 226.6875 296.378906 226.109375 296.75 225.554688 C 297.125 224.996094 297.523438 224.457031 297.949219 223.9375 C 298.375 223.417969 298.824219 222.921875 299.296875 222.445312 C 299.773438 221.972656 300.269531 221.519531 300.785156 221.09375 C 301.304688 220.667969 301.84375 220.269531 302.402344 219.898438 C 302.957031 219.523438 303.53125 219.179688 304.125 218.863281 C 304.714844 218.546875 305.320312 218.257812 305.941406 218.003906 C 306.5625 217.746094 307.191406 217.519531 307.832031 217.324219 C 308.476562 217.128906 309.125 216.96875 309.785156 216.835938 C 310.441406 216.703125 311.105469 216.605469 311.769531 216.539062 C 312.4375 216.476562 313.109375 216.441406 313.777344 216.441406 Z M 313.777344 216.441406 " fill-opacity="1" fill-rule="nonzero"/></g><path fill="#1d213b" d="M 347.910156 250.609375 C 347.914062 249.8125 347.847656 249.019531 347.714844 248.230469 C 347.582031 247.445312 347.378906 246.675781 347.109375 245.925781 C 346.839844 245.171875 346.507812 244.453125 346.113281 243.757812 C 345.714844 243.066406 345.265625 242.414062 344.753906 241.796875 C 344.246094 241.183594 343.683594 240.621094 343.078125 240.105469 C 342.46875 239.589844 341.820312 239.132812 341.128906 238.730469 C 340.441406 238.328125 339.722656 237.988281 338.972656 237.714844 C 338.226562 237.4375 337.460938 237.230469 336.675781 237.089844 C 335.890625 236.945312 335.097656 236.875 334.300781 236.871094 C 333.503906 236.871094 332.714844 236.9375 331.925781 237.074219 C 331.140625 237.210938 330.375 237.414062 329.625 237.683594 C 328.875 237.953125 328.152344 238.289062 327.460938 238.6875 C 326.769531 239.082031 326.117188 239.539062 325.507812 240.050781 C 324.894531 240.558594 324.332031 241.121094 323.816406 241.730469 C 323.304688 242.34375 322.847656 242.992188 322.449219 243.683594 C 322.046875 244.375 321.710938 245.09375 321.4375 245.84375 C 321.164062 246.59375 320.957031 247.359375 320.816406 248.144531 C 320.675781 248.929688 320.605469 249.722656 320.605469 250.519531 C 320.605469 251.320312 320.671875 252.113281 320.808594 252.898438 C 320.949219 253.683594 321.152344 254.453125 321.425781 255.203125 C 321.695312 255.953125 322.03125 256.671875 322.429688 257.363281 C 322.828125 258.054688 323.285156 258.707031 323.796875 259.320312 C 324.308594 259.929688 324.867188 260.492188 325.480469 261.007812 C 326.089844 261.519531 326.742188 261.976562 327.429688 262.375 L 327.429688 271.109375 C 327.429688 271.558594 327.476562 272 327.5625 272.441406 C 327.648438 272.882812 327.78125 273.308594 327.949219 273.722656 C 328.121094 274.136719 328.332031 274.53125 328.582031 274.90625 C 328.832031 275.277344 329.113281 275.625 329.429688 275.941406 C 329.746094 276.257812 330.09375 276.542969 330.464844 276.789062 C 330.839844 277.039062 331.230469 277.25 331.644531 277.421875 C 332.058594 277.59375 332.488281 277.722656 332.925781 277.8125 C 333.367188 277.898438 333.808594 277.941406 334.257812 277.941406 C 334.707031 277.941406 335.148438 277.898438 335.589844 277.8125 C 336.027344 277.722656 336.457031 277.59375 336.871094 277.421875 C 337.285156 277.25 337.679688 277.039062 338.050781 276.789062 C 338.421875 276.542969 338.769531 276.257812 339.085938 275.941406 C 339.402344 275.625 339.683594 275.277344 339.933594 274.90625 C 340.183594 274.53125 340.394531 274.136719 340.566406 273.722656 C 340.734375 273.308594 340.867188 272.882812 340.953125 272.441406 C 341.039062 272 341.085938 271.558594 341.085938 271.109375 L 341.085938 262.375 C 342.117188 261.78125 343.058594 261.0625 343.902344 260.21875 C 344.75 259.375 345.472656 258.4375 346.070312 257.40625 C 346.667969 256.375 347.125 255.28125 347.4375 254.128906 C 347.75 252.976562 347.90625 251.804688 347.910156 250.609375 Z M 347.910156 250.609375 " fill-opacity="1" fill-rule="nonzero"/></svg>