<svg xmlns="http://www.w3.org/2000/svg" width="18" height="18" viewBox="0 0 18 18" fill="none">
<path fill-rule="evenodd" clip-rule="evenodd" d="M0.150631 0.150631C0.351472 -0.0502103 0.6771 -0.0502103 0.877941 0.150631L4.77537 4.04806C4.77911 4.05169 4.78281 4.05538 4.78645 4.05914L7.72625 6.99894C7.72742 7.0001 7.72858 7.00126 7.72974 7.00243L10.9975 10.2702C10.9987 10.2714 10.9999 10.2726 11.0011 10.2738L13.9399 13.2126C13.9437 13.2163 13.9474 13.22 13.951 13.2237L17.8494 17.1221C18.0502 17.3229 18.0502 17.6485 17.8494 17.8494C17.6485 18.0502 17.3229 18.0502 17.1221 17.8494L13.5277 14.2551C12.1956 15.1602 10.6253 15.6592 9.00841 15.6856L9 15.6857C6.09454 15.6857 3.84659 14.0264 2.35695 12.4375C1.60744 11.638 1.03446 10.8405 0.648783 10.2433C0.455628 9.94422 0.308617 9.69409 0.209183 9.51731C0.159447 9.42889 0.121556 9.35872 0.0956926 9.30985C0.0827592 9.28541 0.0728282 9.26628 0.0659222 9.25285L0.0578329 9.23701L0.055494 9.23238L0.0544875 9.23038C0.0543851 9.23018 0.0542946 9.23 0.514286 9L0.0544875 9.23038C-0.0202442 9.08092 -0.0178918 8.90408 0.06112 8.75683C0.962849 7.07638 2.18105 5.58844 3.64673 4.37404L0.150631 0.877941C-0.0502103 0.6771 -0.0502103 0.351472 0.150631 0.150631ZM4.37747 5.10478C3.0516 6.18771 1.9397 7.50962 1.09973 9.00248C1.10168 9.00596 1.10366 9.00949 1.10566 9.01304C1.19607 9.17377 1.33232 9.40578 1.51282 9.68527C1.87447 10.2452 2.41041 10.9906 3.10733 11.734C4.50977 13.2299 6.50322 14.6555 8.9958 14.6571C10.3445 14.6343 11.656 14.2361 12.7854 13.5127L10.6129 11.3402C10.4514 11.4585 10.2773 11.5595 10.0935 11.6414C9.74652 11.796 9.37197 11.8792 8.99217 11.8859C8.61238 11.8926 8.23512 11.8227 7.88292 11.6804C7.53071 11.5382 7.21077 11.3264 6.94217 11.0578C6.67357 10.7892 6.46183 10.4693 6.31957 10.1171C6.1773 9.76488 6.10744 9.38762 6.11414 9.00783C6.12084 8.62804 6.20397 8.25348 6.35857 7.90651C6.44046 7.72271 6.54153 7.54865 6.65978 7.38709L4.37747 5.10478ZM7.40087 8.12818C7.36267 8.19152 7.32833 8.25728 7.2981 8.32514C7.19972 8.54594 7.14682 8.78429 7.14255 9.02598C7.13829 9.26766 7.18275 9.50773 7.27328 9.73186C7.36381 9.95599 7.49855 10.1596 7.66948 10.3305C7.8404 10.5014 8.04401 10.6362 8.26814 10.7267C8.49227 10.8173 8.73234 10.8617 8.97403 10.8574C9.21571 10.8532 9.45406 10.8003 9.67486 10.7019C9.74272 10.6717 9.80849 10.6373 9.87182 10.5991L7.40087 8.12818ZM8.99879 3.34286C8.49331 3.34167 7.9894 3.39926 7.49721 3.51446C7.22066 3.5792 6.94398 3.40748 6.87925 3.13093C6.81452 2.85437 6.98623 2.5777 7.26279 2.51296C7.83241 2.37963 8.41559 2.31296 9.0006 2.31429C11.9058 2.31452 14.1535 3.97371 15.643 5.56254C16.3926 6.36202 16.9655 7.15953 17.3512 7.7567C17.5444 8.05578 17.6914 8.30592 17.7908 8.48269C17.8406 8.57111 17.8784 8.64128 17.9043 8.69015C17.9172 8.71459 17.9272 8.73372 17.9341 8.74715L17.9422 8.76299L17.9445 8.76762L17.9452 8.76909L17.9455 8.76962C17.9456 8.76982 17.9457 8.77 17.4857 9L17.9455 8.76962C18.0201 8.91882 18.0179 9.09533 17.9393 9.24244C17.4541 10.1501 16.8755 11.0045 16.2129 11.792C16.0301 12.0093 15.7056 12.0372 15.4883 11.8544C15.271 11.6715 15.243 11.3471 15.4259 11.1297C15.9836 10.467 16.4773 9.75322 16.9005 8.998C16.8985 8.99436 16.8964 8.99067 16.8943 8.98696C16.8039 8.82623 16.6677 8.59422 16.4872 8.31473C16.1255 7.75475 15.5896 7.00941 14.8927 6.26603C13.4894 4.76926 11.4945 3.34286 9 3.34286L8.99879 3.34286Z" fill="#78829D"/>
</svg>