<svg xmlns="http://www.w3.org/2000/svg" width="18" height="14" viewBox="0 0 18 14" fill="none">
<path fill-rule="evenodd" clip-rule="evenodd" d="M1.13062 6.75C1.13158 6.75173 1.13255 6.75346 1.13352 6.7552C1.22363 6.91683 1.35947 7.15023 1.53946 7.43142C1.9001 7.99484 2.43453 8.74473 3.12941 9.49257C4.52882 10.9987 6.51629 12.4317 9.00005 12.4317C11.4838 12.4317 13.4713 10.9987 14.8707 9.49257C15.5656 8.74473 16.1 7.99484 16.4606 7.43142C16.6406 7.15023 16.7765 6.91683 16.8666 6.7552C16.8676 6.75346 16.8685 6.75172 16.8695 6.75C16.8685 6.74827 16.8676 6.74654 16.8666 6.7448C16.7765 6.58317 16.6406 6.34977 16.4606 6.06858C16.1 5.50516 15.5656 4.75528 14.8707 4.00743C13.4713 2.50134 11.4838 1.06835 9.00005 1.06835C6.51629 1.06835 4.52882 2.50134 3.12941 4.00743C2.43453 4.75528 1.9001 5.50516 1.53946 6.06858C1.35947 6.34977 1.22363 6.58317 1.13352 6.7448C1.13255 6.74654 1.13158 6.74827 1.13062 6.75ZM17.4709 6.75C17.9444 6.51111 17.9443 6.51092 17.9442 6.51071L17.9432 6.50866L17.9409 6.50396L17.9328 6.48793C17.9258 6.47435 17.9159 6.45503 17.9029 6.43035C17.8771 6.38101 17.8392 6.31021 17.7895 6.22103C17.6901 6.04273 17.5431 5.79051 17.3501 5.48898C16.9647 4.88692 16.3922 4.08285 15.6432 3.27674C14.1548 1.67491 11.9068 0 9.00005 0C6.09327 0 3.84531 1.67491 2.35693 3.27674C1.60791 4.08285 1.03535 4.88692 0.649981 5.48898C0.456967 5.79051 0.310045 6.04273 0.210645 6.22103C0.160924 6.31021 0.123034 6.38101 0.0971554 6.43035C0.0842144 6.45503 0.0742714 6.47435 0.0673494 6.48793L0.0592328 6.50396L0.0568778 6.50866L0.0561269 6.51017C0.0560222 6.51038 0.0556607 6.51111 0.529196 6.75L0.0561269 6.51017C-0.0183975 6.66056 -0.0188636 6.8385 0.0556607 6.98889L0.529196 6.75C0.0556607 6.98889 0.0555561 6.98868 0.0556607 6.98889L0.0568778 6.99134L0.0592328 6.99604L0.0673494 7.01207C0.0742714 7.02565 0.0842144 7.04497 0.0971554 7.06965C0.123034 7.11899 0.160924 7.18979 0.210645 7.27897C0.310045 7.45727 0.456967 7.70949 0.649981 8.01103C1.03535 8.61308 1.60791 9.41715 2.35693 10.2233C3.84531 11.8251 6.09327 13.5 9.00005 13.5C11.9068 13.5 14.1548 11.8251 15.6432 10.2233C16.3922 9.41715 16.9647 8.61308 17.3501 8.01103C17.5431 7.70949 17.6901 7.45727 17.7895 7.27897C17.8392 7.18979 17.8771 7.11899 17.9029 7.06965C17.9159 7.04497 17.9258 7.02565 17.9328 7.01207L17.9409 6.99604L17.9432 6.99134L17.944 6.98983C17.9441 6.98962 17.9444 6.98889 17.4709 6.75ZM17.4709 6.75L17.944 6.98983C18.0185 6.83944 18.0188 6.6611 17.9442 6.51071L17.4709 6.75ZM9.00005 4.95324C8.01654 4.95324 7.21925 5.75768 7.21925 6.75C7.21925 7.74232 8.01654 8.54676 9.00005 8.54676C9.98356 8.54676 10.7809 7.74232 10.7809 6.75C10.7809 5.75768 9.98356 4.95324 9.00005 4.95324ZM6.16039 6.75C6.16039 5.16764 7.43175 3.88489 9.00005 3.88489C10.5684 3.88489 11.8397 5.16764 11.8397 6.75C11.8397 8.33236 10.5684 9.61511 9.00005 9.61511C7.43175 9.61511 6.16039 8.33236 6.16039 6.75Z" fill="#78829D"/>
</svg>