<svg width="1466" height="610" viewBox="0 0 1466 610" fill="none" xmlns="http://www.w3.org/2000/svg">
<path d="M451.156 448.588L361.194 534.879C337.671 557.441 300.329 559.711 274.025 540.178L206.188 489.803C179.82 470.222 142.373 472.557 118.869 495.247L0 610V0H1466L1267.68 207.659C1241.23 235.361 1195.6 235.033 1169.58 206.955L1068.32 97.689C1042.42 69.7384 997.049 69.2654 970.52 96.6694L824.493 247.511C813.992 258.358 796.201 258.674 785.289 248.207C774.656 238.008 757.417 238.008 746.784 248.207L537.878 448.588C525.904 460.073 506.491 460.073 494.517 448.588C482.543 437.103 463.13 437.103 451.156 448.588Z" fill="url(#paint0_linear_10063_30871)"/>
<defs>
<linearGradient id="paint0_linear_10063_30871" x1="733" y1="-23.7662" x2="733" y2="610" gradientUnits="userSpaceOnUse">
<stop stop-color="#8cA777" stop-opacity="0.12"/>
<stop offset="1" stop-color="#8cA777" stop-opacity="0.04"/>
</linearGradient>
</defs>
</svg>
